<svg xmlns="http://www.w3.org/2000/svg" xmlns:xlink="http://www.w3.org/1999/xlink" width="1080" zoomAndPan="magnify" viewBox="0 0 810 809.999993" height="1080" preserveAspectRatio="xMidYMid meet" version="1.0"><defs><clipPath id="64de35dba2"><path d="M 182 244.152344 L 628 244.152344 L 628 644.652344 L 182 644.652344 Z M 182 244.152344 " clip-rule="nonzero"/></clipPath></defs><g clip-path="url(#64de35dba2)"><path fill="#ffffff" d="M 517.4375 587.582031 C 508.847656 594.699219 500.257812 601.863281 490.636719 607.574219 C 479.589844 614.136719 468 619.585938 455.464844 622.707031 C 449.980469 624.074219 444.347656 624.5 438.699219 624.066406 C 433.992188 623.703125 432.066406 619.964844 434.40625 615.847656 C 439.011719 607.738281 446 602.128906 453.691406 597.152344 C 458.230469 594.214844 463.050781 591.820312 467.890625 589.570312 C 473.488281 586.96875 479.484375 585.21875 485.339844 583.203125 C 493.863281 580.273438 502.757812 578.988281 511.617188 577.679688 C 516.59375 576.941406 521.671875 577.257812 526.703125 577.351562 C 526.882812 577.660156 527.066406 577.96875 527.246094 578.273438 C 523.988281 581.390625 520.898438 584.714844 517.4375 587.582031 Z M 511.28125 445.230469 C 505.394531 451.390625 499.984375 457.976562 493.945312 464.007812 C 486.144531 471.792969 477.707031 478.84375 468.675781 485.046875 C 461.410156 490.035156 453.648438 494.425781 444.894531 496.523438 C 444.238281 496.679688 443.542969 496.664062 443.582031 496.660156 C 440.746094 496.820312 439.941406 496.253906 440.449219 493.792969 C 441.324219 489.492188 443.738281 486.085938 446.109375 482.640625 C 449.6875 477.445312 454.117188 472.984375 458.902344 468.917969 C 468.457031 460.8125 479.089844 454.292969 490.417969 449.039062 C 496.402344 446.261719 502.714844 444.109375 509.105469 442.308594 C 510.351562 441.960938 511.933594 441.191406 512.640625 442.109375 C 513.425781 443.125 512.078125 444.398438 511.28125 445.230469 Z M 261.527344 384.019531 C 265.925781 373.808594 271.839844 364.542969 278.390625 355.632812 C 282.476562 350.078125 287.304688 345.183594 292.421875 340.632812 C 297.96875 335.691406 304.253906 331.773438 311.507812 329.730469 C 312.785156 329.367188 314.207031 329.507812 315.5625 329.417969 C 321.636719 329.5 324.519531 333.960938 323.019531 340.9375 C 321.984375 345.742188 319.570312 349.890625 316.632812 353.6875 C 310.847656 361.167969 303.515625 366.84375 295.558594 371.914062 C 288.792969 376.222656 281.660156 379.710938 274.242188 382.570312 C 270.53125 383.996094 266.75 385.683594 262.605469 385.730469 C 261.410156 385.742188 260.710938 385.910156 261.527344 384.019531 Z M 627.558594 610.941406 C 627.398438 609.453125 626.515625 608.050781 626.003906 606.597656 C 624.265625 601.671875 620.246094 598.4375 616.996094 594.679688 C 609.589844 586.136719 601.613281 578.160156 591.988281 572.050781 C 585.578125 567.984375 578.6875 564.898438 571.636719 562.148438 C 570.632812 561.757812 569.207031 561.546875 570.082031 559.816406 C 571.511719 556.992188 573.234375 554.324219 574.832031 551.605469 C 578.625 545.140625 581.628906 538.328125 584.371094 531.40625 C 586.597656 525.789062 588.371094 520.007812 589.613281 514.058594 C 590.820312 508.300781 592.320312 502.550781 592.5 496.6875 C 592.769531 487.882812 593.464844 479.003906 591.414062 470.28125 C 590.511719 466.445312 589.554688 462.609375 588.386719 458.847656 C 586.699219 453.433594 583.996094 448.472656 580.847656 443.78125 C 577.78125 439.214844 574.238281 435.078125 569.769531 431.742188 C 565.351562 428.445312 560.804688 425.433594 555.601562 423.507812 C 553.953125 422.894531 553.328125 421.742188 554.253906 420.078125 C 558.5 412.429688 562.140625 404.507812 565.390625 396.386719 C 570.273438 384.191406 573.871094 371.640625 576.230469 358.730469 C 577.402344 352.304688 577.78125 345.8125 577.546875 339.285156 C 577.546875 339.1875 577.539062 339.09375 577.546875 338.996094 C 578.246094 328.941406 576.453125 319.144531 573.679688 309.609375 C 572.402344 305.207031 569.890625 301.078125 567.371094 297.101562 C 560.882812 286.851562 551.757812 280.105469 540.074219 277.125 C 532.554688 275.210938 524.789062 275.609375 517.273438 277.214844 C 509.707031 278.828125 502.398438 281.4375 495.445312 284.964844 C 484.40625 290.570312 474.421875 297.726562 465.246094 305.945312 C 457.191406 313.160156 449.671875 320.941406 442.730469 329.273438 C 436.5 336.75 430.632812 344.492188 424.789062 352.261719 C 421.578125 356.527344 418.257812 360.820312 415.46875 365.273438 C 412.371094 370.222656 408.984375 374.992188 405.878906 379.933594 C 401.0625 387.589844 395.753906 394.960938 390.894531 402.570312 C 383.597656 413.988281 375.746094 425 367.414062 435.617188 C 357.625 448.089844 346.5 459.320312 333.277344 468.355469 C 322.253906 475.894531 310.261719 481.03125 297.089844 482.4375 C 280.917969 484.160156 266.007812 478.191406 257.230469 462.636719 C 254.175781 457.214844 252.390625 451.335938 251.058594 445.183594 C 250.058594 440.535156 249.984375 435.910156 249.878906 431.335938 C 249.746094 425.570312 250.824219 419.769531 251.40625 413.988281 C 251.828125 409.765625 253.171875 408.273438 257.261719 407.972656 C 266.011719 407.335938 274.222656 404.628906 282.269531 401.4375 C 289.65625 398.515625 296.617188 394.753906 303.449219 390.632812 C 314.488281 383.96875 324 375.769531 331.867188 365.585938 C 338.757812 356.65625 342.054688 346.707031 341.449219 335.355469 C 341.140625 329.628906 339.246094 324.65625 335.972656 320.121094 C 327.8125 308.804688 312.664062 309.367188 302.742188 312.683594 C 298.90625 313.964844 295.441406 316.074219 291.835938 317.878906 C 284.960938 321.324219 279.304688 326.394531 273.699219 331.460938 C 269.007812 335.699219 265.179688 340.785156 261.191406 345.71875 C 255.707031 352.5 251.164062 359.867188 246.722656 367.300781 C 243.421875 372.816406 240.671875 378.664062 238.398438 384.707031 C 237.777344 386.363281 236.507812 387.273438 234.757812 386.730469 C 228.574219 384.808594 222.535156 382.539062 217.566406 378.1875 C 206.460938 368.457031 202.84375 355.605469 203.007812 341.519531 C 203.089844 334.5 203.839844 327.480469 205.558594 320.53125 C 207.648438 312.09375 210.667969 304.046875 214.171875 296.179688 C 217.136719 289.519531 221.003906 283.339844 225.414062 277.464844 C 231.679688 269.109375 239.0625 262.171875 248.132812 256.941406 C 251.339844 255.09375 255.070312 253.742188 257.15625 250.351562 C 259.183594 247.050781 257.527344 244.300781 253.617188 244.207031 C 251.351562 244.15625 249.242188 244.800781 247.058594 245.230469 C 237.992188 247.027344 230.472656 251.566406 223.425781 257.324219 C 217.539062 262.128906 212.589844 267.699219 208.023438 273.707031 C 204.128906 278.839844 200.4375 284.070312 197.539062 289.851562 C 193.1875 298.527344 189.15625 307.261719 186.535156 316.703125 C 184.5 324.015625 183.109375 331.394531 182.503906 338.871094 C 181.703125 348.855469 182.449219 358.765625 185.882812 368.351562 C 188.507812 375.671875 192.132812 382.371094 197.273438 388.21875 C 202.078125 393.691406 207.515625 398.46875 214.144531 401.550781 C 218.804688 403.71875 223.472656 406.121094 228.707031 406.703125 C 230.464844 406.898438 230.34375 407.960938 230.371094 409.152344 C 230.472656 413.550781 229.507812 417.878906 228.757812 422.117188 C 227.222656 430.742188 228.054688 439.246094 229.421875 447.613281 C 230.597656 454.824219 232.746094 461.90625 235.972656 468.675781 C 240.40625 477.972656 246.464844 485.863281 254.5625 492.007812 C 265.28125 500.140625 277.464844 504.011719 291.085938 503.925781 C 300.285156 503.871094 309.277344 502.882812 317.863281 499.835938 C 325.015625 497.296875 331.90625 494.15625 338.496094 490.085938 C 347.511719 484.515625 355.609375 477.855469 363.003906 470.542969 C 370.089844 463.539062 376.664062 455.902344 382.636719 447.796875 C 388.164062 440.292969 393.707031 432.808594 398.839844 425.03125 C 405.074219 415.589844 411.1875 406.066406 417.367188 396.589844 C 422.035156 389.429688 426.714844 382.277344 431.410156 375.136719 C 437.222656 366.300781 443.398438 357.710938 449.804688 349.304688 C 453.847656 343.996094 458.246094 338.941406 462.734375 333.996094 C 468.617188 327.519531 474.800781 321.328125 481.597656 315.785156 C 488.695312 309.996094 496.183594 304.921875 504.589844 301.070312 C 513.167969 297.140625 521.78125 294.617188 531.335938 295.542969 C 538.621094 296.242188 544.003906 300.136719 547.894531 305.660156 C 554.078125 314.425781 556.015625 324.742188 556.335938 335.292969 C 556.679688 346.6875 554.957031 357.820312 551.992188 368.863281 C 550.164062 375.667969 547.96875 382.347656 545.378906 388.824219 C 541.890625 397.535156 537.535156 405.921875 532.828125 414.074219 C 531.363281 416.613281 529.910156 419.5 526.121094 419.496094 C 522.769531 419.496094 519.480469 419.882812 516.128906 420.527344 C 511.984375 421.328125 507.972656 422.609375 503.871094 423.519531 C 498.183594 424.777344 492.871094 427.355469 487.503906 429.691406 C 473.042969 435.980469 459.703125 444.09375 447.722656 454.285156 C 438.714844 461.945312 430.992188 470.839844 425.921875 481.683594 C 422.847656 488.257812 420.671875 494.917969 422.96875 502.488281 C 425.152344 509.691406 431.679688 514.53125 438.972656 515.371094 C 446.828125 516.28125 454.300781 514.101562 461.382812 511.398438 C 468.691406 508.609375 475.621094 504.792969 482.28125 500.496094 C 489.976562 495.527344 497.210938 490.007812 504.066406 483.996094 C 510.765625 478.128906 517.117188 471.847656 522.890625 465.085938 C 528.75 458.226562 534.640625 451.335938 539.667969 443.828125 C 541.648438 440.867188 543.730469 441.082031 546.308594 442.320312 C 551.082031 444.621094 555.242188 447.628906 558.886719 451.597656 C 566.523438 459.921875 569.488281 470.011719 570.3125 480.8125 C 571.011719 490.015625 570.511719 499.234375 568.148438 508.257812 C 566.589844 514.230469 564.910156 520.152344 562.554688 525.882812 C 558.929688 534.691406 554.179688 542.882812 549.25 551 C 545.914062 556.492188 545.675781 556.601562 539.425781 555.644531 C 532.5625 554.59375 525.550781 554.652344 518.753906 555.453125 C 512.265625 556.222656 505.730469 557.0625 499.261719 558.347656 C 492.28125 559.742188 485.449219 561.625 478.742188 563.730469 C 472.496094 565.695312 466.441406 568.496094 460.5 571.429688 C 446.230469 578.476562 433.039062 586.835938 423.355469 599.839844 C 418.132812 606.851562 414.140625 614.234375 414.921875 623.445312 C 415.199219 626.75 416.289062 629.675781 418.054688 632.296875 C 423.355469 640.167969 431.484375 643.039062 440.363281 643.839844 C 451.554688 644.847656 462.292969 641.964844 472.804688 638.597656 C 479.910156 636.324219 486.796875 633.347656 493.484375 629.945312 C 502.570312 625.328125 511.25 620.078125 519.46875 614.046875 C 523.835938 610.839844 528.027344 607.449219 532.15625 603.941406 C 539.253906 597.90625 545.808594 591.308594 551.863281 584.289062 C 554.167969 581.617188 556.269531 581.554688 558.886719 582.488281 C 565.730469 584.929688 572.507812 587.566406 578.675781 591.488281 C 586.972656 596.753906 594.675781 602.835938 602.472656 608.800781 C 607.367188 612.546875 612.3125 616.417969 618.441406 617.910156 C 624.992188 619.503906 628.257812 617.351562 627.558594 610.941406 " fill-opacity="1" fill-rule="nonzero"/></g></svg>